<svg width="16" height="16" xmlns="http://www.w3.org/2000/svg" fill="context-fill" fill-opacity="context-fill-opacity">
  <path d="M2.75,1c-.962,0-1.75.788-1.75,1.75v1.312c0,.242.196.438.438.438s.438-.196.438-.438v-1.312c0-.488.387-.875.875-.875h1.312c.242,0,.438-.196.438-.438s-.196-.438-.438-.438h-1.312ZM11.938,1c-.242,0-.438.196-.438.438s.196.438.438.438h1.312c.488,0,.875.387.875.875v1.312c0,.242.196.438.438.438s.438-.196.438-.438v-1.312c0-.962-.788-1.75-1.75-1.75h-1.312ZM4.938,2.75c-1.207.004-2.184.981-2.188,2.188v6.125c0,1.203.984,2.188,2.188,2.188h6.125c1.203,0,2.188-.984,2.188-2.188v-6.125c0-1.203-.984-2.188-2.188-2.188h-6.125ZM4.938,3.625h2.188v1.312c0,.72.592,1.312,1.312,1.312h3.938v4.812c0,.73-.583,1.312-1.312,1.312h-6.125c-.73,0-1.312-.583-1.312-1.312v-6.125c0-.73.583-1.312,1.312-1.312ZM8,3.625h3.062c.73,0,1.312.583,1.312,1.312v.438h-3.938c-.238.003-.434-.187-.438-.425,0-.004,0-.008,0-.012v-1.312ZM1.438,11.5c-.242,0-.438.196-.438.438v1.312c0,.962.788,1.75,1.75,1.75h1.312c.242,0,.438-.196.438-.438s-.196-.438-.438-.438h-1.312c-.488,0-.875-.387-.875-.875v-1.312c0-.242-.196-.438-.438-.438ZM14.562,11.5c-.242,0-.438.196-.438.438v1.312c0,.488-.387.875-.875.875h-1.312c-.242,0-.438.196-.438.438s.196.438.438.438h1.312c.962,0,1.75-.788,1.75-1.75v-1.312c0-.242-.196-.438-.438-.438Z"/>
</svg>