<svg width="16" height="16" xmlns="http://www.w3.org/2000/svg" fill="context-fill" fill-opacity="context-fill-opacity">
  <path d="M3.2,1.4c-.7,0-1.3.6-1.3,1.3v1.3h.9v-1.3c0-.2.2-.4.4-.4h9.6c.2,0,.4.2.4.4v6.1c0,.2-.2.4-.4.4h-4.8v.9h4.8c.7,0,1.3-.6,1.3-1.3V2.8c0-.7-.6-1.3-1.3-1.3H3.2ZM2.3,4.9c-.7,0-1.3.6-1.3,1.3v7c0,.7.6,1.3,1.3,1.3h3.5c.7,0,1.3-.6,1.3-1.3h0v-7c0-.7-.6-1.3-1.3-1.3h-3.5ZM2.3,5.8h3.5c.2,0,.4.2.4.4v7c0,.2-.2.4-.4.4h-3.5c-.2,0-.4-.2-.4-.4v-7c0-.2.2-.4.4-.4ZM8,11.1v.9h6.6c.2,0,.4-.2.4-.4s-.2-.4-.4-.4h-6.6ZM3.6,11.9c-.2,0-.4.2-.4.4s.2.4.4.4h.9c.2,0,.4-.2.4-.4s-.2-.4-.4-.4h-.9Z"/>
</svg>