<svg width="16" height="16" xmlns="http://www.w3.org/2000/svg" fill="context-fill" fill-opacity="context-fill-opacity">
  <path d="M3.406,1c-1.086.004-1.965.883-1.969,1.969v8.312c.004,1.086.883,1.965,1.969,1.969h3.491c-.096-.282-.197-.577-.206-.875h-3.285c-.609,0-1.094-.485-1.094-1.094v-6.781h11.375v-1.531c-.004-1.086-.883-1.965-1.969-1.969H3.406ZM3.406,1.875h8.312c.609,0,1.094.485,1.094,1.094v.656H2.312v-.656c0-.609.485-1.094,1.094-1.094Z"/>
  <path d="M11.062,5.375c-1.208,0-2.188.979-2.188,2.188s.979,2.188,2.188,2.188c.689,0,1.337-.324,1.75-.875h-1.75c-.725,0-1.312-.588-1.312-1.312s.588-1.312,1.312-1.312h1.75c-.413-.551-1.061-.876-1.75-.875ZM11.062,7.125v.875h2.144c.059-.289.059-.586,0-.875h-2.144ZM8.919,10.625c-.406,0-.748.207-.977.464-.228.254-.38.599-.38.954v.28c0,1.429,1.429,2.678,3.5,2.678,1.085,0,1.995-.343,2.614-.875h-2.614c-1.776,0-2.625-1.025-2.625-1.802v-.28c0-.11.053-.254.159-.374.104-.116.222-.169.323-.169h5.526c-.065-.15-.154-.289-.263-.411-.229-.257-.571-.464-.978-.464h-4.287ZM11.062,12.375v.875h3.292c.129-.276.201-.571.208-.875h-3.5Z"/>
</svg>