<svg width="16" height="16" xmlns="http://www.w3.org/2000/svg" fill="context-fill" fill-opacity="context-fill-opacity">
  <defs>
    <style>
      .st0 {
        fill: none;
      }

      .st1 {
        clip-path: url(#clippath);
      }
    </style>
    <clipPath id="clippath">
      <path class="st0" d="M3.308.827l12.256,12.256V.827H3.308ZM1.456,1.444v13.491h13.49L1.456,1.444Z"/>
    </clipPath>
  </defs>
  <g class="st1">
    <path d="M12.866.988c-.071.004-.143.015-.213.038l-6.172,1.929c-.368.115-.618.456-.618.842v7.17c-.974-.73-2.356-.533-3.086.441-.73.974-.533,2.356.441,3.086.974.73,2.356.533,3.086-.441.286-.382.441-.846.441-1.323v-6.289l6.172-1.929v4.691c-.974-.73-2.356-.533-3.086.441s-.533,2.356.441,3.086,2.356.533,3.086-.441c.286-.382.441-.846.441-1.323V1.868c0-.52-.441-.91-.932-.88ZM12.916,1.868v1.722l-6.172,1.929v-1.722l6.172-1.929ZM11.593,9.645c.73,0,1.323.592,1.323,1.323s-.592,1.323-1.323,1.323-1.323-.592-1.323-1.323.592-1.323,1.323-1.323ZM4.54,11.408c.73,0,1.323.592,1.323,1.323s-.592,1.323-1.323,1.323-1.323-.592-1.323-1.323.592-1.323,1.323-1.323Z"/>
  </g>
  <path d="M1.897.828c-.117,0-.229.046-.312.129-.172.172-.172.451,0,.623l13.226,13.226c.172.172.451.172.623,0,.172-.172.172-.451,0-.623L2.209.956c-.083-.083-.195-.129-.312-.129h0Z"/>
</svg>