<svg width="16" height="16" xmlns="http://www.w3.org/2000/svg" fill="context-fill" fill-opacity="context-fill-opacity">
  <path d="M3.345,1c-.286,0-.517.196-.517.437v7.44c0,.966.926,1.75,2.069,1.75h1.039v2.623c0,.966.926,1.75,2.069,1.75s2.069-.783,2.069-1.75v-2.623h1.03c1.143,0,2.069-.783,2.069-1.75V1.437c0-.242-.232-.437-.517-.437H3.345ZM3.862,1.875h4.138v1.312c0,.242.232.437.517.437s.517-.196.517-.437v-1.312h1.035v2.189c0,.242.232.437.517.437s.517-.196.517-.437V1.875h1.035v5.253H3.862V1.875ZM3.862,8.003h8.276v.875c0,.483-.463.875-1.035.875h-1.548c-.286,0-.517.196-.517.437v3.06c0,.483-.463.875-1.035.875s-1.035-.392-1.035-.875v-3.06c0-.242-.232-.437-.517-.437h-1.556c-.571,0-1.035-.392-1.035-.875v-.875Z"/>
</svg>