<svg width="16" height="16" xmlns="http://www.w3.org/2000/svg" fill="context-fill" fill-opacity="context-fill-opacity">
  <path d="M7.977,1c-1.208,0-2.187.979-2.187,2.187,0,.211.031.421.091.624l-1.96-.741c-.799-.272-1.666.155-1.938.954-.258.757.113,1.585.849,1.898l2.52.971v2.098l-1.437,3.958c-.288.793.121,1.67.914,1.959.793.288,1.67-.121,1.959-.914l1.189-3.243,1.194,3.239c.29.792,1.167,1.199,1.959.909.792-.29,1.199-1.167.909-1.959h0l-1.437-3.957v-2.094l2.508-.951c.792-.301,1.19-1.186.89-1.978s-1.186-1.19-1.978-.89h0l-1.948.738c.342-1.158-.32-2.375-1.478-2.717-.201-.059-.409-.089-.618-.09ZM7.977,1.875c.725-.019,1.327.553,1.346,1.278.019.725-.553,1.327-1.278,1.346-.023,0-.045,0-.068,0-.725,0-1.312-.588-1.312-1.312s.588-1.312,1.312-1.312h0ZM3.365,3.845c.084-.001.167.013.245.044l3.59,1.357c.5.189,1.051.189,1.55,0l3.582-1.358c.341-.129.722.042.851.383.129.341-.042.722-.383.851h0l-2.793,1.057c-.17.064-.282.227-.282.409v2.471c0,.051.009.102.026.15l1.464,4.031c.123.338-.051.712-.389.836s-.712-.051-.836-.389h0l-1.199-3.254c-.279-.758-1.353-.758-1.632.002l-1.194,3.261c-.123.339-.498.514-.838.391-.339-.123-.514-.498-.391-.838l1.461-4.03c.018-.048.027-.099.027-.15v-2.476c0-.181-.111-.343-.28-.409l-2.8-1.078c-.336-.129-.503-.507-.374-.842.095-.246.329-.411.593-.417h0Z"/>
</svg>