<svg width="16" height="16" xmlns="http://www.w3.org/2000/svg" fill="context-fill" fill-opacity="context-fill-opacity">
  <path d="M1.747,1.128c-.171-.171-.448-.171-.619,0-.171.171-.171.448,0,.619l1.112,1.112c-.046.042-.092.086-.136.131-1.477,1.492-1.47,3.917.014,5.415l5.492,5.548c.228.23.597.23.825,0l2.438-2.461,3.381,3.381c.171.171.448.171.619,0,.171-.171.171-.448,0-.619C14.872,14.253,1.747,1.128,1.747,1.128ZM10.254,10.873l-2.232,2.253L2.739,7.789c-1.149-1.161-1.15-3.036-.014-4.184.044-.044.088-.086.134-.127l7.394,7.394ZM13.275,7.823l-1.789,1.806.619.619,1.794-1.811c1.474-1.497,1.469-3.915-.015-5.414-1.455-1.47-3.787-1.508-5.273-.106-.032.03-.064.061-.095.093l-.522.528-.529-.534c-.029-.029-.058-.058-.088-.086-.976-.925-2.315-1.235-3.53-.927l.764.764c.8-.045,1.617.243,2.232.865l.84.849c.171.173.451.173.622,0l.832-.842c1.134-1.145,2.977-1.145,4.124.014,1.148,1.16,1.15,3.029.014,4.183,0,0,0,0,0,0Z"/>
</svg>