<svg width="16" height="16" xmlns="http://www.w3.org/2000/svg" fill="context-fill" fill-opacity="context-fill-opacity">

  <path d="M3.414,1c-1.061,0-1.931.869-1.931,1.931v3.065c.302-.106.626-.168.966-.168v-2.897c0-.544.422-.966.966-.966h2.897v1.448c0,.795.654,1.448,1.448,1.448h6.276v7.724c0,.544-.422.966-.966.966h-2.897c0,.34-.062.663-.168.966h3.065c1.062,0,1.931-.869,1.931-1.931V2.931c0-1.061-.869-1.931-1.931-1.931H3.414ZM7.276,1.966h5.793c.544,0,.966.422.966.966v.966h-6.276c-.263.004-.479-.206-.483-.469,0-.005,0-.009,0-.014v-1.448Z"/>
  <g fill="none" stroke="context-fill" stroke-opacity="context-fill-opacity" stroke-width="1.001">
    <rect class="st0" x="1" y="7.276" width="7.724" height="7.724" rx="1.5" ry="1.5"/>
    <path class="st0" d="M1.483,14.517l2.697-2.697c.377-.377.988-.377,1.365,0l2.697,2.697"/>
  </g>
  <circle cx="6.552" cy="9.448" r=".724"/>
</svg>
