<svg width="16" height="16" xmlns="http://www.w3.org/2000/svg" fill="context-fill" fill-opacity="context-fill-opacity">
  <path d="M12.817,1.002c-.071.004-.143.015-.214.038l-6.195,1.936c-.369.116-.621.458-.62.845v7.196c-.977-.733-2.364-.535-3.097.442-.733.977-.535,2.364.442,3.097.977.733,2.364.535,3.097-.442.287-.383.442-.849.442-1.327v-6.312l6.195-1.936v4.708c-.977-.733-2.364-.535-3.097.442s-.535,2.364.442,3.097,2.364.535,3.097-.442c.287-.383.442-.849.442-1.327V1.885c0-.522-.442-.913-.935-.883ZM12.867,1.885v1.728l-6.195,1.936v-1.728l6.195-1.936ZM11.54,9.69c.733,0,1.327.594,1.327,1.327s-.594,1.327-1.327,1.327-1.327-.594-1.327-1.327.594-1.327,1.327-1.327ZM4.46,11.46c.733,0,1.327.594,1.327,1.327s-.594,1.327-1.327,1.327-1.327-.594-1.327-1.327.594-1.327,1.327-1.327Z"/>
</svg>